# xmcd CD database file
#
# Track frame offsets:
#	150
#	27073
#	56421
#	84350
#	103586
#	125382
#	149032
#	184929
#	213899
#
# Disc length: 3119 seconds
#
# Revision: 0
# Processed by: cddbd v1.5.2PL0 Copyright (c) Steve Scherf et al.
# Submitted via: CDex 1.70beta2
#
DISCID=770c2d09
DTITLE=TRIBAND - Where Did All The Love Go?
DYEAR=2012
DGENRE=Jazz
TTITLE0=Where Did All The Love Go?
TTITLE1=Let Me Out
TTITLE2=Faded
TTITLE3=Miss Baby Light
TTITLE4=Somebody Else
TTITLE5=Chameleon Moon
TTITLE6=High
TTITLE7=No Sleep - Pillow
TTITLE8=Before We Fall
EXTD=YEAR: 2012
EXTT0=
EXTT1=
EXTT2=
EXTT3=
EXTT4=
EXTT5=
EXTT6=
EXTT7=
EXTT8=
PLAYORDER=
